<?xml version="1.0" encoding="UTF-8"?>
<svg version="1.1" xmlns="http://www.w3.org/2000/svg" width="200" height="200">
<path d="M0 0 C66 0 132 0 200 0 C200 66 200 132 200 200 C134 200 68 200 0 200 C0 134 0 68 0 0 Z " fill="#207D5C" transform="translate(0,0)"/>
<path d="M0 0 C66 0 132 0 200 0 C200 66 200 132 200 200 C134 200 68 200 0 200 C0 134 0 68 0 0 Z M16 16 C16 70.12 16 124.24 16 180 C70.12 180 124.24 180 180 180 C180 125.88 180 71.76 180 16 C125.88 16 71.76 16 16 16 Z " fill="#1A5F46" transform="translate(0,0)"/>
<path d="M0 0 C0.66 0.33 1.32 0.66 2 1 C5.05560614 1.03077589 8.09815617 0.9326198 11.15234375 0.83984375 C14 1 14 1 17 3 C17.29675351 5.93902745 17.3988651 8.66753683 17.37231445 11.60888672 C17.37596512 12.50008209 17.37961578 13.39127747 17.38337708 14.30947876 C17.39150731 17.26640667 17.37784984 20.22279071 17.36328125 23.1796875 C17.36276285 25.22990926 17.36327978 27.28013152 17.36479187 29.33035278 C17.36470203 33.63290807 17.35425025 37.93527645 17.33618164 42.23779297 C17.31352267 47.75499788 17.31294399 53.2719288 17.31969929 58.7891674 C17.32304044 63.02534421 17.31640591 67.26145849 17.30657005 71.49762344 C17.30271816 73.53180743 17.30156979 75.56599838 17.3031559 77.60018539 C17.30352655 80.44436643 17.29090515 83.28819596 17.2746582 86.13232422 C17.27713562 86.97506897 17.27961304 87.81781372 17.28216553 88.68609619 C17.24364261 92.90937945 16.93257302 95.13485396 15 99 C11.04 99 7.08 99 3 99 C2.67 99.66 2.34 100.32 2 101 C1.01 100.34 0.02 99.68 -1 99 C-1 98.34 -1 97.68 -1 97 C-19.48 97 -37.96 97 -57 97 C-57 67.63 -57 38.26 -57 8 C-40.5 8 -24 8 -7 8 C-7 11.3 -7 14.6 -7 18 C-6.34 14.04 -5.68 10.08 -5 6 C-3.68 6.33 -2.36 6.66 -1 7 C-1.495 4.03 -1.495 4.03 -2 1 C-1.34 0.67 -0.68 0.34 0 0 Z " fill="#247E5D" transform="translate(93,40)"/>
<path d="M0 0 C66 0 132 0 200 0 C200 66 200 132 200 200 C134 200 68 200 0 200 C0 134 0 68 0 0 Z M5 5 C5 66.71 5 128.42 5 192 C35.669375 192.020625 66.33875 192.04125 97.9375 192.0625 C112.48960571 192.07615601 112.48960571 192.07615601 127.33569336 192.09008789 C135.99500257 192.09343131 135.99500257 192.09343131 144.65431213 192.09544373 C148.52594063 192.09637935 152.39755555 192.10014251 156.2691803 192.10557556 C161.19788663 192.1124011 166.12657305 192.11449742 171.05528367 192.11307228 C172.87023471 192.11337057 174.6851864 192.11537322 176.5001334 192.11921513 C178.9396034 192.12414177 181.37899462 192.12300743 183.81846619 192.12025452 C184.53906503 192.12316718 185.25966387 192.12607985 186.00209904 192.12908077 C189.28261125 192.40212216 189.28261125 192.40212216 192 191 C192.09766516 188.59672099 192.12997042 186.2222006 192.12025452 183.81846619 C192.12111053 183.05991333 192.12196655 182.30136047 192.12284851 181.51982117 C192.12451372 178.95060941 192.11896392 176.38146174 192.11352539 173.81225586 C192.1132193 171.9498447 192.11335213 170.08743342 192.11389065 168.22502232 C192.11411721 163.21943514 192.10830455 158.21387167 192.10128021 153.2082901 C192.09560216 148.51813173 192.09531801 143.82797925 192.09460449 139.13781738 C192.08934879 125.40437509 192.07538775 111.67093725 192.0625 97.9375 C192.0315625 51.9334375 192.0315625 51.9334375 192 5 C130.29 5 68.58 5 5 5 Z " fill="#FBFBFA" transform="translate(0,0)"/>
<path d="M0 0 C15.84 0 31.68 0 48 0 C48 2.97 48 5.94 48 9 C36.12 9 24.24 9 12 9 C12 18.57 12 28.14 12 38 C22.56 38 33.12 38 44 38 C44 41.3 44 44.6 44 48 C33.77 48 23.54 48 13 48 C13 58.23 13 68.46 13 79 C24.88 79 36.76 79 49 79 C49 82.3 49 85.6 49 89 C32.83 89 16.66 89 0 89 C0 59.63 0 30.26 0 0 Z " fill="#F1F9F7" transform="translate(36,48)"/>
<path d="M0 0 C4.29 0 8.58 0 13 0 C13.94261895 3.89185414 14.88479157 7.78381274 15.82592773 11.67602539 C16.29949567 13.63374049 16.77376143 15.59128673 17.24804688 17.54882812 C19.21553748 25.68802609 21.13529795 33.83663353 23 42 C25.22041593 38.18946362 26.10523879 34.04960655 27.12890625 29.8046875 C27.32346909 29.01603302 27.51803192 28.22737854 27.7184906 27.41482544 C28.33765451 24.90262911 28.95048596 22.38894688 29.5625 19.875 C30.17891055 17.35412817 30.79669046 14.83361212 31.41722107 12.31375122 C31.80268057 10.74739156 32.18562245 9.18040979 32.56581116 7.61276245 C33.88826809 2.22346383 33.88826809 2.22346383 35 0 C39.29 0 43.58 0 48 0 C46.74609636 7.50516111 45.08068188 14.66079958 42.875 21.9375 C42.24776426 24.04399305 41.62150317 26.1507765 40.99609375 28.2578125 C40.6697998 29.35383789 40.34350586 30.44986328 40.00732422 31.57910156 C38.62235435 36.28249415 37.28843149 40.9997765 35.95507812 45.71801758 C34.62753715 50.40740956 33.28179166 55.09142194 31.93017578 59.77392578 C31.33627265 61.83372525 30.74575634 63.8945063 30.15966797 65.95654297 C24.25654577 86.60467752 24.25654577 86.60467752 17.1796875 91.17578125 C14.42678706 92.21675256 12.18455449 92.19487034 9.25 92.125 C8.26515625 92.10695313 7.2803125 92.08890625 6.265625 92.0703125 C5.51796875 92.04710937 4.7703125 92.02390625 4 92 C2.768606 88.30581799 3.35567236 85.7943739 4 82 C6.64 81.67 9.28 81.34 12 81 C12.66092719 79.52751571 13.30280011 78.04647802 13.9375 76.5625 C14.29714844 75.73878906 14.65679687 74.91507812 15.02734375 74.06640625 C18.11091138 64.34511875 16.00220585 57.01607745 13 47.4375 C12.58418395 46.06563445 12.17014095 44.69323031 11.7578125 43.3203125 C10.92221853 40.54545231 10.0783571 37.77334752 9.2265625 35.00341797 C7.43856309 29.18245157 5.71647979 23.3423852 4 17.5 C3.56494141 16.05258423 3.56494141 16.05258423 3.12109375 14.57592773 C1.68134354 9.71111959 0.55447836 5.04575306 0 0 Z " fill="#F7FBFB" transform="translate(117,71)"/>
<path d="M0 0 C1.64566067 3.00413241 1.47545645 5.99824169 1.44409657 9.33588505 C1.44877654 10.0951668 1.45345651 10.85444855 1.4582783 11.63673884 C1.47027331 14.18869434 1.46075367 16.74011729 1.45132923 19.29207706 C1.45539297 21.11852171 1.46073374 22.9449639 1.46725941 24.77140141 C1.48096328 29.73833712 1.47562145 34.70508637 1.46612215 39.67202544 C1.45854029 44.86451877 1.46556716 50.05699585 1.47028065 55.24948978 C1.47574299 63.97139706 1.46853455 72.69322821 1.45425892 81.41512394 C1.43793662 91.50407833 1.44321596 101.59285081 1.45973814 111.68180078 C1.47334547 120.33664507 1.47527619 128.99143454 1.46742213 137.64628607 C1.46274081 142.81858525 1.46213324 147.9907989 1.47203159 153.16309261 C1.48068784 158.02632836 1.47470389 162.8893293 1.45734882 167.75253963 C1.45337658 169.5391841 1.4545306 171.32584827 1.46113682 173.11248493 C1.46931351 175.54814107 1.4590781 177.98304099 1.44409657 180.41864872 C1.45078873 181.12866738 1.4574809 181.83868604 1.46437585 182.57022041 C1.42985013 185.45658273 1.15749802 187.72424408 0 190.38040638 C-2.89765376 192.71478984 -5.74737359 192.48352968 -9.30747509 192.4285059 C-10.06408442 192.43262916 -10.82069375 192.43675243 -11.60023063 192.44100064 C-14.14322336 192.44995254 -16.68519216 192.43024688 -19.22811413 192.41072941 C-21.04794979 192.41123801 -22.86778569 192.41349248 -24.6876173 192.41736698 C-29.63590988 192.4227973 -34.58382963 192.40334591 -39.53205514 192.37926602 C-44.70277883 192.35801324 -49.87350055 192.35856659 -55.04426098 192.35657597 C-63.72751844 192.35012338 -72.41063529 192.3288564 -81.09383678 192.29744816 C-92.25090505 192.25714564 -103.40788166 192.23976014 -114.56501389 192.23013878 C-124.14284517 192.22184585 -133.72065692 192.20460523 -143.29847121 192.18510127 C-146.38426144 192.17902814 -149.4700524 192.17388878 -152.55584431 192.16874981 C-157.39767157 192.15998342 -162.23945314 192.14569086 -167.0812521 192.12703991 C-168.86228529 192.12090469 -170.64332519 192.11646163 -172.42436695 192.11379719 C-174.84736093 192.1098312 -177.27025064 192.09972828 -179.69321728 192.08792973 C-180.40517067 192.08811409 -181.11712406 192.08829845 -181.8506518 192.0884884 C-186.70838021 192.05499578 -186.70838021 192.05499578 -188.93685436 190.94075871 C-188.98352969 166.48042433 -189.01882126 142.02009662 -189.04047871 117.55972672 C-189.05080093 106.20291692 -189.06487929 94.84613475 -189.08773327 83.48934269 C-189.10763823 73.59330153 -189.12056391 63.69728038 -189.12503135 53.80121976 C-189.12764365 48.55904878 -189.13380324 43.31693505 -189.14831448 38.07478237 C-189.1618527 33.14435122 -189.16608465 28.2140011 -189.16306973 23.28355312 C-189.16362158 21.4706818 -189.16762134 19.65780787 -189.17526531 17.84495258 C-189.18516779 15.37611076 -189.18284055 12.90757777 -189.1773634 10.43872929 C-189.18318908 9.71596953 -189.18901476 8.99320978 -189.19501698 8.24854821 C-189.17291743 4.58100319 -189.03097768 3.08194369 -186.93685436 -0.05924129 C-184.44277284 -0.37281576 -182.19207187 -0.48798796 -179.69321728 -0.47815609 C-178.56064327 -0.49130138 -178.56064327 -0.49130138 -177.40518898 -0.50471222 C-174.86169195 -0.5304978 -172.31860659 -0.53479207 -169.77498913 -0.53922176 C-167.95691482 -0.55314155 -166.13884987 -0.56833375 -164.32079601 -0.58470821 C-159.37253917 -0.6252372 -154.4243649 -0.64675654 -149.47597909 -0.6641469 C-144.30565233 -0.68464631 -139.13542051 -0.71966696 -133.96515942 -0.75238705 C-125.28021651 -0.80490085 -116.59528104 -0.84476278 -107.91024303 -0.87760067 C-97.86038526 -0.91579107 -87.81082776 -0.97561119 -77.7611528 -1.04667461 C-69.14377122 -1.10703868 -60.52638162 -1.15567847 -51.90887588 -1.19448483 C-46.75723896 -1.2176996 -41.60571149 -1.24503381 -36.45415974 -1.28293133 C-31.61071153 -1.31791283 -26.76742199 -1.33820833 -21.92385769 -1.34704304 C-20.14321573 -1.35271374 -18.36258185 -1.36355325 -16.5820055 -1.37985706 C-14.15696409 -1.40123112 -11.73259342 -1.40414003 -9.30747509 -1.40222836 C-8.59775242 -1.41281147 -7.88802975 -1.42339458 -7.15680033 -1.4342984 C-4.46507858 -1.41630358 -2.38609805 -1.30492702 0 0 Z M-187.93685436 2.94075871 C-187.93685436 64.65075871 -187.93685436 126.36075871 -187.93685436 189.94075871 C-157.26747936 189.96138371 -126.59810436 189.98200871 -94.99935436 190.00325871 C-80.44724865 190.01691471 -80.44724865 190.01691471 -65.601161 190.0308466 C-56.94185179 190.03419002 -56.94185179 190.03419002 -48.28254223 190.03620243 C-44.41091374 190.03713805 -40.53929881 190.04090121 -36.66767406 190.04633427 C-31.73896773 190.05315981 -26.81028132 190.05525612 -21.8815707 190.05383098 C-20.06661966 190.05412927 -18.25166797 190.05613193 -16.43672097 190.05997384 C-13.99725096 190.06490048 -11.55785974 190.06376614 -9.11838818 190.06101322 C-8.39778934 190.06392589 -7.67719049 190.06683855 -6.93475533 190.06983948 C-3.65424311 190.34288087 -3.65424311 190.34288087 -0.93685436 188.94075871 C-0.8391892 186.53747969 -0.80688394 184.16295931 -0.81659985 181.75922489 C-0.81574383 181.00067204 -0.81488781 180.24211918 -0.81400585 179.46057987 C-0.81234065 176.89136811 -0.81789044 174.32222044 -0.82332897 171.75301456 C-0.82363506 169.8906034 -0.82350223 168.02819213 -0.82296371 166.16578102 C-0.82273715 161.16019384 -0.82854981 156.15463037 -0.83557415 151.14904881 C-0.84125221 146.45889044 -0.84153635 141.76873796 -0.84224987 137.07857609 C-0.84750558 123.3451338 -0.86146661 109.61169596 -0.87435436 95.87825871 C-0.90529186 49.87419621 -0.90529186 49.87419621 -0.93685436 2.94075871 C-62.64685436 2.94075871 -124.35685436 2.94075871 -187.93685436 2.94075871 Z " fill="#BECCC6" transform="translate(192.9368543624878,2.05924129486084)"/>
<path d="M0 0 C3.96 0 7.92 0 12 0 C12 31.68 12 63.36 12 96 C8.04 96 4.08 96 0 96 C0 64.32 0 32.64 0 0 Z " fill="#FDFEFE" transform="translate(95,41)"/>
<path d="M0 0 C3.3 0 6.6 0 10 0 C10.02332618 24.2341154 10.04097779 48.46822913 10.05181217 72.70235348 C10.05697573 83.95383516 10.06401956 95.20530989 10.07543945 106.45678711 C10.08538447 116.2597854 10.09185299 126.06277865 10.09408849 135.86578184 C10.09539591 141.05980367 10.09848371 146.25381107 10.10573006 151.44782829 C10.11248741 156.33063221 10.11461755 161.21341568 10.11310768 166.09622383 C10.11338414 167.89380631 10.11539095 169.69138944 10.11920547 171.4889679 C10.12413828 173.93215962 10.12299983 176.37527287 10.12025452 178.81846619 C10.12462378 179.8996715 10.12462378 179.8996715 10.12908131 181.00271934 C10.11412121 185.88587879 10.11412121 185.88587879 9 187 C6.59671471 187.09766542 4.22220648 187.12996828 1.81846619 187.12025452 C0.67787344 187.12153615 0.67787344 187.12153615 -0.48576158 187.12284368 C-3.0531125 187.12450078 -5.62039917 187.11897339 -8.18774414 187.11352539 C-10.02038064 187.11324354 -11.85301725 187.11340121 -13.68565369 187.1139679 C-18.67718062 187.11425596 -23.66868375 187.10835777 -28.66020513 187.10139394 C-33.87059106 187.09516191 -39.08097749 187.09455672 -44.29136658 187.09336853 C-54.16531025 187.09025477 -64.03924291 187.08204078 -73.91318172 187.07201904 C-85.15120001 187.06085929 -96.38921881 187.0553478 -107.62724125 187.05032361 C-130.75150029 187.0398582 -153.87574953 187.02225789 -177 187 C-177 186.67 -177 186.34 -177 186 C-116.94 186 -56.88 186 5 186 C5 185.01 5 184.02 5 183 C3.02 183 1.04 183 -1 183 C2 181 2 181 6 181 C6.495 92.89 6.495 92.89 7 3 C5.02 2.67 3.04 2.34 1 2 C0.67 1.34 0.34 0.68 0 0 Z " fill="#436E5D" transform="translate(182,5)"/>
<path d="M0 0 C2.43084011 2.43084011 2.24041212 3.71213654 2.26748681 7.02919424 C2.26302537 7.73268361 2.25856392 8.43617299 2.25396729 9.16098022 C2.25864726 10.28024523 2.25864726 10.28024523 2.26342177 11.42212164 C2.27143258 13.93562766 2.26506619 16.44889431 2.25878906 18.96240234 C2.26149761 20.75914146 2.26505777 22.55587947 2.26940918 24.35261536 C2.27855303 29.24313292 2.27498039 34.13356642 2.26865101 39.02408552 C2.26359976 44.13516949 2.26828016 49.24624609 2.27142334 54.35733032 C2.2750662 62.94396257 2.27025619 71.53056046 2.26074219 80.1171875 C2.24986395 90.04987672 2.25337735 99.98248381 2.264395 109.91517103 C2.27346702 118.43410648 2.27475335 126.95301718 2.26951766 135.4719559 C2.2663966 140.56376976 2.26599221 145.65554501 2.27259064 150.74735641 C2.27836198 155.53584072 2.27437104 160.32421904 2.26280212 165.11269188 C2.26015411 166.8719242 2.26092303 168.63116541 2.26532745 170.39039421 C2.27077895 172.78873467 2.2639536 175.18673387 2.25396729 177.58505249 C2.26065945 178.63359439 2.26065945 178.63359439 2.26748681 179.70331895 C2.23868366 183.26094206 2.14460651 186.07298761 0 189 C-3.50073184 190.16691061 -6.64010209 190.14176138 -10.28123474 190.13371277 C-11.02826583 190.13597833 -11.77529693 190.13824388 -12.54496533 190.14057809 C-15.05530172 190.1469227 -17.56558419 190.14608843 -20.07592773 190.14526367 C-21.87281362 190.14825485 -23.66969886 190.15165729 -25.46658325 190.15544128 C-30.35288541 190.16428913 -35.23917007 190.16661971 -40.12547946 190.16725707 C-44.20119318 190.16820556 -48.2769028 190.17188313 -52.35261494 190.17542917 C-61.96595438 190.18357653 -71.57928446 190.18601312 -81.19262695 190.18530273 C-91.1179472 190.18470169 -101.04321313 190.19525811 -110.96851963 190.2110464 C-119.48322444 190.22410947 -127.99791147 190.22948716 -136.51262623 190.22884732 C-141.60107745 190.228592 -146.68948041 190.23146242 -151.77792168 190.24202538 C-156.56230665 190.25168576 -161.34659701 190.25179973 -166.13098526 190.24450874 C-167.88860906 190.24346037 -169.64623869 190.24584071 -171.40385246 190.2518692 C-173.7999411 190.25955641 -176.19570036 190.25496619 -178.59178162 190.24723816 C-179.29012743 190.25238172 -179.98847324 190.25752529 -180.70798105 190.26282471 C-184.30953428 190.2370891 -186.93415508 189.96388882 -190 188 C-187.02755448 186.51377724 -184.00738708 186.87726229 -180.74963379 186.89993286 C-179.99387888 186.90119513 -179.23812398 186.90245741 -178.45946741 186.90375793 C-175.91369739 186.90915818 -173.36801049 186.92168566 -170.82226562 186.93408203 C-169.00258002 186.93927243 -167.18289298 186.94398113 -165.36320496 186.94824219 C-161.43826507 186.95819923 -157.51334882 186.97105465 -153.58842468 186.98596573 C-147.38761297 187.00897065 -141.18680456 187.02231472 -134.98596191 187.03366089 C-117.351114 187.06714552 -99.71631334 187.10880423 -82.08154297 187.17138672 C-72.34701282 187.20585164 -62.61251764 187.22969831 -52.87793303 187.24159515 C-47.72241208 187.24838339 -42.56703941 187.26090863 -37.41157532 187.28662491 C-32.56564509 187.31079582 -27.7198843 187.32127053 -22.87389565 187.32102966 C-21.09123064 187.32346109 -19.30856437 187.33108248 -17.52594566 187.34415817 C-15.10053443 187.36121288 -12.6758136 187.35999638 -10.25036621 187.35403442 C-9.5377307 187.36345507 -8.82509519 187.37287571 -8.09086466 187.38258183 C-5.92921031 187.40000573 -5.92921031 187.40000573 -3 187 C-0.60106397 183.40159595 -0.71015719 180.80988288 -0.7215271 176.65388489 C-0.7128385 175.52297952 -0.7128385 175.52297952 -0.70397437 174.36922759 C-0.68693043 171.83570836 -0.68409412 169.30237081 -0.68115234 166.76879883 C-0.67185719 164.95556693 -0.66168914 163.14233932 -0.65071106 161.32911682 C-0.6233504 156.39970874 -0.60824371 151.47032933 -0.59528303 146.54086518 C-0.57967898 141.39184918 -0.55288012 136.24289196 -0.5272522 131.09391785 C-0.48041604 121.34048242 -0.44369537 111.58703599 -0.41057932 101.83354539 C-0.37239207 90.73086964 -0.32297304 79.62825286 -0.27259517 68.52562678 C-0.16920339 45.68379486 -0.07996658 22.84192508 0 0 Z " fill="#EDEDED" transform="translate(194,6)"/>
<path d="M0 0 C1.65 0 3.3 0 5 0 C4.5359375 1.051875 4.5359375 1.051875 4.0625 2.125 C2.15646262 7.28251291 1.87478795 12.27192413 1.87301636 17.73518372 C1.87145637 18.38732855 1.86989638 19.03947338 1.86828911 19.71138018 C1.8643206 21.8828869 1.86745264 24.05432292 1.87060547 26.22583008 C1.86924955 27.78844748 1.86746854 29.35106455 1.86529541 30.91368103 C1.86074267 35.14934012 1.86250207 39.38497481 1.8656745 43.62063432 C1.86821059 48.06070409 1.86585695 52.50077181 1.86428833 56.94084167 C1.86246972 64.3997739 1.86486428 71.85869623 1.86962891 79.31762695 C1.87506495 87.92675345 1.87331241 96.53585624 1.8678025 105.14498216 C1.86325545 112.54730774 1.86262879 119.94962621 1.86524117 127.35195273 C1.86679595 131.76813024 1.86701976 136.18429662 1.86370468 140.6004734 C1.86080304 144.7561802 1.86284362 148.91185665 1.86859894 153.0675602 C1.86991453 154.58765106 1.86955296 156.1077445 1.86733627 157.62783432 C1.85738372 165.14991106 1.95833155 172.53735899 3 180 C5.64 180.33 8.28 180.66 11 181 C11 181.66 11 182.32 11 183 C67.43 183 123.86 183 182 183 C182 183.99 182 184.98 182 186 C121.94 186 61.88 186 0 186 C0 124.62 0 63.24 0 0 Z " fill="#215340" transform="translate(5,5)"/>
<path d="M0 0 C0.86825912 0.00222061 1.73651825 0.00444122 2.63108826 0.00672913 C3.61202957 0.00680466 4.59297089 0.00688019 5.6036377 0.00695801 C6.6702916 0.01211929 7.7369455 0.01728058 8.83592224 0.02259827 C9.92211349 0.02401321 11.00830475 0.02542816 12.12741089 0.02688599 C15.61230674 0.03250403 19.09713941 0.04505959 22.58201599 0.05775452 C24.93813486 0.06276719 27.29425473 0.0673305 29.65037537 0.07142639 C35.44011063 0.08247933 41.2298088 0.09923501 47.01951599 0.12025452 C47.01951599 0.45025452 47.01951599 0.78025452 47.01951599 1.12025452 C31.17951599 1.12025452 15.33951599 1.12025452 -0.98048401 1.12025452 C-0.98048401 30.49025452 -0.98048401 59.86025452 -0.98048401 90.12025452 C15.18951599 90.12025452 31.35951599 90.12025452 48.01951599 90.12025452 C47.68951599 90.78025452 47.35951599 91.44025452 47.01951599 92.12025452 C40.23858299 92.1962164 33.45775939 92.24881701 26.67649841 92.28504944 C24.36883952 92.30015128 22.06120938 92.32063421 19.75364685 92.34657288 C16.439854 92.38289427 13.12644007 92.39996688 9.81248474 92.41322327 C8.26079842 92.43644905 8.26079842 92.43644905 6.67776489 92.46014404 C5.71699539 92.46037064 4.75622589 92.46059723 3.76634216 92.46083069 C2.92028915 92.46749252 2.07423615 92.47415436 1.20254517 92.48101807 C-0.98048401 92.12025452 -0.98048401 92.12025452 -2.76062012 91.12414551 C-4.74205117 87.86921529 -4.32972399 84.41040432 -4.24513245 80.71742249 C-4.23742325 79.86027649 -4.22971405 79.00313049 -4.22177124 78.12001038 C-4.19247034 75.28376609 -4.14144238 72.44836171 -4.08985901 69.61244202 C-4.06436572 67.64615855 -4.04006891 65.67985924 -4.016922 63.71354675 C-3.9653331 59.59257725 -3.90381818 55.4719202 -3.83448792 51.35121155 C-3.74555884 46.05702861 -3.67414121 40.76280127 -3.60920334 35.46827507 C-3.54656971 30.43290546 -3.47458818 25.39768138 -3.40235901 20.36244202 C-3.38940544 19.39524105 -3.37645187 18.42804008 -3.36310577 17.43153 C-3.32508737 14.70900571 -3.280353 11.98668071 -3.2334137 9.26429749 C-3.2229451 8.44974091 -3.2124765 7.63518433 -3.20169067 6.79594421 C-3.0751109 0.18672 -3.0751109 0.18672 0 0 Z " fill="#34775F" transform="translate(36.98048400878906,46.87974548339844)"/>
<path d="M0 0 C3.96 0 7.92 0 12 0 C12 31.68 12 63.36 12 96 C8.04 96 4.08 96 0 96 C0 64.32 0 32.64 0 0 Z M2 3 C0.85323885 7.11639038 0.85970239 11.08723477 0.87060547 15.33276367 C0.86885315 16.17054855 0.86710083 17.00833344 0.86529541 17.87150574 C0.86089858 20.63701455 0.86380647 23.4024593 0.8671875 26.16796875 C0.86651403 28.08799756 0.86554364 30.00802629 0.86428833 31.92805481 C0.86281446 35.94870822 0.86495667 39.96933941 0.86962891 43.98999023 C0.87533753 49.15537622 0.87203807 54.32071037 0.86605644 59.48609447 C0.86245228 63.44847508 0.86358855 67.41084329 0.86618423 71.37322426 C0.86685331 73.27871011 0.86602576 75.18419707 0.86370468 77.08968163 C0.86117928 79.74495835 0.86501661 82.4001496 0.87060547 85.05541992 C0.86858124 85.84970398 0.86655701 86.64398804 0.86447144 87.46234131 C0.5468356 91.02642626 0.5468356 91.02642626 2 94 C6.03160191 94.26293056 7.55892734 94.29404844 11 92 C11.29684659 89.19994688 11.39898385 86.62070204 11.37231445 83.81835938 C11.37596512 82.97271927 11.37961578 82.12707916 11.38337708 81.2558136 C11.39150429 78.45159013 11.3778546 75.64794059 11.36328125 72.84375 C11.3627629 70.90083822 11.36327962 68.95792591 11.36479187 67.01501465 C11.36470205 62.93945505 11.35425257 58.86409287 11.33618164 54.78857422 C11.31349415 49.5559027 11.31294932 44.32351984 11.31969929 39.09081268 C11.32303559 35.07775289 11.31641557 31.06475929 11.30657005 27.05171204 C11.30271192 25.1219365 11.30157237 23.19215362 11.3031559 21.26237488 C11.30352542 18.56865323 11.29093834 15.87530618 11.2746582 13.18164062 C11.27713562 12.37845901 11.27961304 11.5752774 11.28216553 10.74775696 C11.40522994 6.40813363 11.40522994 6.40813363 9 3 C5.41656024 2.83322718 5.41656024 2.83322718 2 3 Z " fill="#DCF9F0" transform="translate(95,41)"/>
<path d="M0 0 C0.99 0.33 1.98 0.66 3 1 C3.04631192 12.92621083 3.08186342 24.85240032 3.10362434 36.77868271 C3.11406775 42.3163546 3.12823718 47.85396504 3.15087891 53.39160156 C3.17258732 58.73432267 3.18456443 64.0769846 3.18975449 69.4197464 C3.19345383 71.45952537 3.20067759 73.49930105 3.21146011 75.53905487 C3.22594835 78.39297012 3.22797905 81.24663991 3.22705078 84.10058594 C3.23424133 84.94647278 3.24143188 85.79235962 3.24884033 86.66387939 C3.2338843 90.90481747 2.94099773 93.11800454 1 97 C-2.96 97 -6.92 97 -11 97 C-11.33 96.34 -11.66 95.68 -12 95 C-8.04 95 -4.08 95 0 95 C0 63.65 0 32.3 0 0 Z " fill="#4E8673" transform="translate(107,42)"/>
<path d="M0 0 C0.99 0 1.98 0 3 0 C2.96519531 1.57201172 2.96519531 1.57201172 2.9296875 3.17578125 C2.91092697 4.55468037 2.89272707 5.9335872 2.875 7.3125 C2.85824219 8.00279297 2.84148438 8.69308594 2.82421875 9.40429688 C2.78782206 13.17135396 2.85621136 14.78431704 5 18 C4.34 18 3.68 18 3 18 C3 19.32 3 20.64 3 22 C3.99 21.67 4.98 21.34 6 21 C7.99383492 20.984115 9.98848932 21.03364099 11.98046875 21.12109375 C13.72553711 21.19360352 13.72553711 21.19360352 15.50585938 21.26757812 C17.32827148 21.35168945 17.32827148 21.35168945 19.1875 21.4375 C20.41404297 21.48970703 21.64058594 21.54191406 22.90429688 21.59570312 C25.93645018 21.72548401 28.96828294 21.86045431 32 22 C32 21.34 32 20.68 32 20 C32.99 20 33.98 20 35 20 C35 20.66 35 21.32 35 22 C35.66 22 36.32 22 37 22 C37.05399736 23.45792884 37.09279177 24.91642712 37.125 26.375 C37.14820313 27.18710938 37.17140625 27.99921875 37.1953125 28.8359375 C37 31 37 31 35 33 C35 29.7 35 26.4 35 23 C23.12 23 11.24 23 -1 23 C-1.020625 19.390625 -1.04125 15.78125 -1.0625 12.0625 C-1.071604 10.92304932 -1.08070801 9.78359863 -1.09008789 8.60961914 C-1.09258545 7.71879639 -1.09508301 6.82797363 -1.09765625 5.91015625 C-1.10289307 4.99371338 -1.10812988 4.07727051 -1.11352539 3.13305664 C-1 1 -1 1 0 0 Z " fill="#2B7B5E" transform="translate(50,104)"/>
<path d="M0 0 C0.66 0 1.32 0 2 0 C2.3690205 9.41002278 2.3690205 9.41002278 0 14 C-0.66 14 -1.32 14 -2 14 C-2.495 13.01 -2.495 13.01 -3 12 C-12.24 12 -21.48 12 -31 12 C-31 13.32 -31 14.64 -31 16 C-31.66 16.33 -32.32 16.66 -33 17 C-33.88639389 19.65918166 -34.17989025 21.48064641 -34.31640625 24.23046875 C-34.35830078 25.03291016 -34.40019531 25.83535156 -34.44335938 26.66210938 C-34.48267578 27.49548828 -34.52199219 28.32886719 -34.5625 29.1875 C-34.60568359 30.03248047 -34.64886719 30.87746094 -34.69335938 31.74804688 C-34.79931518 33.83184433 -34.9001502 35.91590103 -35 38 C-35.33 38 -35.66 38 -36 38 C-36 28.43 -36 18.86 -36 9 C-24.12 9 -12.24 9 0 9 C0 6.03 0 3.06 0 0 Z " fill="#6AA08E" transform="translate(84,48)"/>
<path d="M0 0 C1.04929687 0.22300781 2.09859375 0.44601563 3.1796875 0.67578125 C4.76136719 0.99095703 4.76136719 0.99095703 6.375 1.3125 C9.0546875 1.98828125 9.0546875 1.98828125 11.0546875 2.98828125 C11.0546875 6.28828125 11.0546875 9.58828125 11.0546875 12.98828125 C12.0446875 12.98828125 13.0346875 12.98828125 14.0546875 12.98828125 C13.3946875 15.62828125 12.7346875 18.26828125 12.0546875 20.98828125 C11.7246875 20.98828125 11.3946875 20.98828125 11.0546875 20.98828125 C10.55090982 18.718283 10.05178731 16.44725122 9.5546875 14.17578125 C9.27625 12.91121094 8.9978125 11.64664063 8.7109375 10.34375 C8.0546875 6.98828125 8.0546875 6.98828125 8.0546875 3.98828125 C3.7646875 3.98828125 -0.5253125 3.98828125 -4.9453125 3.98828125 C-4.6153125 5.96828125 -4.2853125 7.94828125 -3.9453125 9.98828125 C-4.6053125 10.64828125 -5.2653125 11.30828125 -5.9453125 11.98828125 C-5.9453125 11.32828125 -5.9453125 10.66828125 -5.9453125 9.98828125 C-6.6053125 9.98828125 -7.2653125 9.98828125 -7.9453125 9.98828125 C-7.63989366 6.62867403 -7.31056793 4.48129034 -5.28125 1.7421875 C-2.9453125 -0.01171875 -2.9453125 -0.01171875 0 0 Z " fill="#30765C" transform="translate(121.9453125,67.01171875)"/>
<path d="M0 0 C0.39856201 0.49491943 0.79712402 0.98983887 1.20776367 1.49975586 C3.55767176 3.46681555 4.66260105 3.26051598 7.67578125 3.00390625 C9.04186523 2.90819336 9.04186523 2.90819336 10.43554688 2.81054688 C11.38494141 2.72869141 12.33433594 2.64683594 13.3125 2.5625 C24.63946391 1.62053255 24.63946391 1.62053255 30 4 C30 4.66 30 5.32 30 6 C20.1 6 10.2 6 0 6 C0 4.02 0 2.04 0 0 Z " fill="#377762" transform="translate(49,80)"/>
<path d="M0 0 C1.98 0 3.96 0 6 0 C4.35 6.93 2.7 13.86 1 21 C-1.62277342 15.75445315 -3.35861008 10.91706636 -3 5 C-2.34 5 -1.68 5 -1 5 C-0.67 5.99 -0.34 6.98 0 8 C0 5.36 0 2.72 0 0 Z " fill="#357D65" transform="translate(140,96)"/>
<path d="M0 0 C0.87785156 0.15339844 1.75570312 0.30679688 2.66015625 0.46484375 C8.54875727 1.30607247 14.50008969 1.36491024 20.4375 1.5625 C21.64599609 1.60568359 22.85449219 1.64886719 24.09960938 1.69335938 C27.06630606 1.79889404 30.03307902 1.90100714 33 2 C33 1.34 33 0.68 33 0 C33.99 0 34.98 0 36 0 C36 0.66 36 1.32 36 2 C36.66 2 37.32 2 38 2 C38.05399736 3.45792884 38.09279177 4.91642712 38.125 6.375 C38.14820313 7.18710938 38.17140625 7.99921875 38.1953125 8.8359375 C38 11 38 11 36 13 C36 9.7 36 6.4 36 3 C24.12 3 12.24 3 0 3 C0 2.01 0 1.02 0 0 Z " fill="#30735A" transform="translate(49,124)"/>
<path d="M0 0 C9.9 0 19.8 0 30 0 C30 2.97 30 5.94 30 9 C29.01 8.67 28.02 8.34 27 8 C27.33 6.35 27.66 4.7 28 3 C24.76248322 1.92082774 22.42248229 1.88574399 19.01953125 1.90234375 C17.27446289 1.90717773 17.27446289 1.90717773 15.49414062 1.91210938 C13.67172852 1.92467773 13.67172852 1.92467773 11.8125 1.9375 C9.97268555 1.94426758 9.97268555 1.94426758 8.09570312 1.95117188 C5.06375332 1.96296935 2.03190094 1.97943079 -1 2 C-0.67 1.34 -0.34 0.68 0 0 Z " fill="#E8FEFA" transform="translate(49,86)"/>
<path d="M0 0 C4.29 0 8.58 0 13 0 C13.33 2.31 13.66 4.62 14 7 C13.67 6.01 13.34 5.02 13 4 C12.34 4 11.68 4 11 4 C10.67 3.34 10.34 2.68 10 2 C7.67843403 1.59270772 5.3431213 1.25561323 3 1 C3.144375 1.73605469 3.28875 2.47210938 3.4375 3.23046875 C3.623125 4.20628906 3.80875 5.18210937 4 6.1875 C4.185625 7.15042969 4.37125 8.11335938 4.5625 9.10546875 C4.96877612 11.7934206 5.07933572 14.28771019 5 17 C3.14670366 14.22005549 2.31436395 12.21743449 1.375 9.0625 C1.11460938 8.20785156 0.85421875 7.35320312 0.5859375 6.47265625 C0 4 0 4 0 0 Z " fill="#DFF8F2" transform="translate(117,71)"/>
<path d="M0 0 C0.66 0.99 1.32 1.98 2 3 C1 5.5 1 5.5 -1 8 C-3.79374292 8.46837899 -6.14221036 8.23424505 -9 8 C-9 10.31 -9 12.62 -9 15 C-9.66 15 -10.32 15 -11 15 C-11.125 8.25 -11.125 8.25 -10 6 C-9.0925 6.12375 -8.185 6.2475 -7.25 6.375 C-6.1775 6.25125 -5.105 6.1275 -4 6 C-1.57577814 3.11490087 -1.57577814 3.11490087 0 0 Z " fill="#34775E" transform="translate(130,145)"/>
<path d="M0 0 C1.84790538 3.31016094 2.74541487 6.57173491 3.625 10.25 C3.88539062 11.32765625 4.14578125 12.4053125 4.4140625 13.515625 C4.60742188 14.33546875 4.80078125 15.1553125 5 16 C4.34 16.33 3.68 16.66 3 17 C2.26435267 15.29463574 1.53004321 13.58867329 0.8046875 11.87890625 C0.14008384 10.32708898 -0.55144047 8.78683097 -1.25 7.25 C-2 5 -2 5 -1 2 C-0.67 1.34 -0.34 0.68 0 0 Z " fill="#3F836C" transform="translate(118,78)"/>
<path d="M0 0 C1.18224668 3.54674003 0.89329634 5.97522995 0.5625 9.6875 C0.46066406 10.86699219 0.35882813 12.04648438 0.25390625 13.26171875 C0.17011719 14.16535156 0.08632812 15.06898437 0 16 C-1.65 16.66 -3.3 17.32 -5 18 C-4.35702496 15.37426939 -3.71075589 12.74942697 -3.0625 10.125 C-2.88009766 9.37863281 -2.69769531 8.63226563 -2.50976562 7.86328125 C-1.11328125 2.2265625 -1.11328125 2.2265625 0 0 Z " fill="#45846F" transform="translate(156,104)"/>
<path d="M0 0 C4.29 0 8.58 0 13 0 C12.67 1.32 12.34 2.64 12 4 C11.67 3.01 11.34 2.02 11 1 C6.89369948 1.04116101 6.89369948 1.04116101 3 2 C1.03816375 5.41008635 1.03816375 5.41008635 0 9 C-0.99 9.495 -0.99 9.495 -2 10 C-1.125 2.25 -1.125 2.25 0 0 Z " fill="#DEF8F2" transform="translate(152,71)"/>
<path d="M0 0 C0.66 0 1.32 0 2 0 C2.3690205 9.41002278 2.3690205 9.41002278 0 14 C-0.66 14 -1.32 14 -2 14 C-2.33 13.34 -2.66 12.68 -3 12 C-5.12576782 11.53348793 -5.12576782 11.53348793 -7.5625 11.375 C-8.38878906 11.30023438 -9.21507813 11.22546875 -10.06640625 11.1484375 C-10.70449219 11.09945312 -11.34257813 11.05046875 -12 11 C-12 10.67 -12 10.34 -12 10 C-8.04 10 -4.08 10 0 10 C0 6.7 0 3.4 0 0 Z " fill="#45826C" transform="translate(84,48)"/>
<path d="M0 0 C3.3 0 6.6 0 10 0 C10 0.66 10 1.32 10 2 C11.32 1.67 12.64 1.34 14 1 C13.67 2.32 13.34 3.64 13 5 C13 4.34 13 3.68 13 3 C8.71 3 4.42 3 0 3 C0 2.01 0 1.02 0 0 Z " fill="#498871" transform="translate(152,68)"/>
<path d="M0 0 C0.99 0.33 1.98 0.66 3 1 C3.6953125 2.99609375 3.6953125 2.99609375 4.125 5.4375 C4.73123617 8.8273078 4.73123617 8.8273078 6 12 C6.04022391 14.3329866 6.04320247 16.66706666 6 19 C3.62400281 15.43600422 2.84268195 11.91618826 1.875 7.8125 C1.69324219 7.06291016 1.51148437 6.31332031 1.32421875 5.54101562 C0.87748314 3.69529219 0.4380306 1.84780868 0 0 Z " fill="#D9F4ED" transform="translate(122,90)"/>
<path d="M0 0 C0.66 1.32 1.32 2.64 2 4 C1.67 4.66 1.34 5.32 1 6 C0.97011197 8.04946506 1.06607276 10.07774318 1.16015625 12.125 C1 14 1 14 -1 16 C-1.99 16 -2.98 16 -4 16 C-2.68 10.72 -1.36 5.44 0 0 Z " fill="#47836D" transform="translate(164,74)"/>
<path d="M0 0 C1.93166016 0.01740234 1.93166016 0.01740234 3.90234375 0.03515625 C5.19269531 0.04417969 6.48304687 0.05320312 7.8125 0.0625 C8.81152344 0.07410156 9.81054688 0.08570312 10.83984375 0.09765625 C10.83984375 0.42765625 10.83984375 0.75765625 10.83984375 1.09765625 C6.54984375 1.09765625 2.25984375 1.09765625 -2.16015625 1.09765625 C-1.83015625 3.07765625 -1.50015625 5.05765625 -1.16015625 7.09765625 C-1.82015625 7.75765625 -2.48015625 8.41765625 -3.16015625 9.09765625 C-3.16015625 8.43765625 -3.16015625 7.77765625 -3.16015625 7.09765625 C-3.82015625 7.09765625 -4.48015625 7.09765625 -5.16015625 7.09765625 C-4.12203006 0.12738041 -4.12203006 0.12738041 0 0 Z " fill="#528F78" transform="translate(119.16015625,69.90234375)"/>
<path d="M0 0 C1.50390625 1.3515625 1.50390625 1.3515625 3 3 C2.88445309 7.39078259 0.83848733 9.79525624 -2 13 C-3.18414294 9.44757118 -2.69535532 8.30169438 -1.5625 4.8125 C-1.27503906 3.91144531 -0.98757812 3.01039063 -0.69140625 2.08203125 C-0.46324219 1.39496094 -0.23507813 0.70789063 0 0 Z " fill="#3A856A" transform="translate(145,140)"/>
<path d="M0 0 C0.33 0 0.66 0 1 0 C1.5321441 2.08047297 2.05031786 4.16452293 2.5625 6.25 C2.85253906 7.41015625 3.14257812 8.5703125 3.44140625 9.765625 C3.95179964 12.72090983 4.02996165 14.24434101 3 17 C3 16.01 3 15.02 3 14 C2.01 14.33 1.02 14.66 0 15 C0 10.05 0 5.1 0 0 Z " fill="#D2EFE6" transform="translate(131,78)"/>
<path d="M0 0 C1.5994614 3.19892281 2.42595236 5.35462576 3.125 8.75 C3.29257813 9.54921875 3.46015625 10.3484375 3.6328125 11.171875 C3.81457031 12.07679687 3.81457031 12.07679687 4 13 C2.68 12.67 1.36 12.34 0 12 C0 8.04 0 4.08 0 0 Z " fill="#3A7B63" transform="translate(123,96)"/>
<path d="M0 0 C0.66 1.32 1.32 2.64 2 4 C1.67 4.33 1.34 4.66 1 5 C0.8453125 6.7015625 0.8453125 6.7015625 0.6875 8.4375 C0.460625 9.613125 0.23375 10.78875 0 12 C-2.04296875 13.22265625 -2.04296875 13.22265625 -4 14 C-3.52188823 12.22888156 -3.0424722 10.45811517 -2.5625 8.6875 C-2.29566406 7.70136719 -2.02882812 6.71523437 -1.75390625 5.69921875 C-1.21920575 3.78482474 -0.62855462 1.88566385 0 0 Z " fill="#D3EFE7" transform="translate(134,139)"/>
<path d="M0 0 C1.98 0 3.96 0 6 0 C6 0.33 6 0.66 6 1 C4.35 1 2.7 1 1 1 C2.30155006 5.07964281 2.30155006 5.07964281 4 9 C2.68 9.33 1.36 9.66 0 10 C-1.231394 6.30581799 -0.64432764 3.7943739 0 0 Z " fill="#C6E5D9" transform="translate(121,153)"/>
<path d="M0 0 C0.66 0.66 1.32 1.32 2 2 C0.35 5.3 -1.3 8.6 -3 12 C-3.66 11.67 -4.32 11.34 -5 11 C-4.731875 10.484375 -4.46375 9.96875 -4.1875 9.4375 C-2.67650593 6.33598585 -1.34427274 3.17737194 0 0 Z " fill="#DDF5EF" transform="translate(142,146)"/>
<path d="M0 0 C2.12300942 3.53834904 2.69690596 6.90823045 3 11 C2.34 11.66 1.68 12.32 1 13 C0.63779734 11.20994059 0.28547531 9.41787943 -0.0625 7.625 C-0.25972656 6.62726563 -0.45695313 5.62953125 -0.66015625 4.6015625 C-1 2 -1 2 0 0 Z " fill="#397963" transform="translate(135,87)"/>
<path d="M0 0 C0 0.33 0 0.66 0 1 C-4.29 1 -8.58 1 -13 1 C-8.8803805 -3.1196195 -5.05862051 -1.99991973 0 0 Z " fill="#30735A" transform="translate(108,40)"/>
<path d="M0 0 C1.67110042 2.96178773 2.32682752 5.37071192 2.625 8.75 C2.69976562 9.54921875 2.77453125 10.3484375 2.8515625 11.171875 C2.90054688 11.77515625 2.94953125 12.3784375 3 13 C2.34 13 1.68 13 1 13 C0.40667939 8.62426048 -0.13827236 4.42471556 0 0 Z " fill="#407A67" transform="translate(132,126)"/>
<path d="M0 0 C1.32 0.66 2.64 1.32 4 2 C0.93753253 3.78409802 -1.22079273 4.22880021 -4.75 4.125 C-5.54921875 4.10695312 -6.3484375 4.08890625 -7.171875 4.0703125 C-7.77515625 4.04710937 -8.3784375 4.02390625 -9 4 C-9 3.67 -9 3.34 -9 3 C-7.88625 2.87625 -6.7725 2.7525 -5.625 2.625 C-1.96896323 2.3534187 -1.96896323 2.3534187 0 0 Z " fill="#E3F9F3" transform="translate(132,159)"/>
<path d="M0 0 C1.5625 1.75 1.5625 1.75 3 4 C2.6875 6.25 2.6875 6.25 2 8 C2 7.01 2 6.02 2 5 C1.34 5 0.68 5 0 5 C-0.33 5.99 -0.66 6.98 -1 8 C-1.66 8 -2.32 8 -3 8 C-3 6.68 -3 5.36 -3 4 C-2.34 3.67 -1.68 3.34 -1 3 C-0.67 2.01 -0.34 1.02 0 0 Z " fill="#EBF7F5" transform="translate(133,92)"/>
<path d="M0 0 C0.66 0.33 1.32 0.66 2 1 C1.01 4.96 0.02 8.92 -1 13 C-1.33 13 -1.66 13 -2 13 C-2.05447047 11.58376784 -2.09300508 10.16691809 -2.125 8.75 C-2.14820313 7.96109375 -2.17140625 7.1721875 -2.1953125 6.359375 C-1.9828378 3.79268059 -1.28654105 2.2083933 0 0 Z " fill="#3F7D66" transform="translate(150,72)"/>
<path d="M0 0 C0.66 0.99 1.32 1.98 2 3 C0.515 5.475 0.515 5.475 -1 8 C-1.66 7.67 -2.32 7.34 -3 7 C-1.125 2.25 -1.125 2.25 0 0 Z " fill="#3C8069" transform="translate(130,145)"/>
<path d="M0 0 C0.66 0.33 1.32 0.66 2 1 C1.25 6.75 1.25 6.75 -1 9 C-1.80967438 6.08517222 -2.21845993 4.53886783 -1.0625 1.6875 C-0.711875 1.130625 -0.36125 0.57375 0 0 Z " fill="#2E765D" transform="translate(132,138)"/>
<path d="M0 0 C0.66 0.66 1.32 1.32 2 2 C1.54545455 7.45454545 1.54545455 7.45454545 -1 10 C-2.31223496 6.06329512 -1.24296256 3.87511856 0 0 Z " fill="#47846D" transform="translate(148,130)"/>
<path d="M0 0 C0.66 0.33 1.32 0.66 2 1 C1.01 4.3 0.02 7.6 -1 11 C-1.33 11 -1.66 11 -2 11 C-2.05399736 9.54207116 -2.09279177 8.08357288 -2.125 6.625 C-2.15980469 5.40683594 -2.15980469 5.40683594 -2.1953125 4.1640625 C-2 2 -2 2 0 0 Z " fill="#E2F9F1" transform="translate(162,77)"/>
<path d="M0 0 C0.33 1.32 0.66 2.64 1 4 C-1.31 4 -3.62 4 -6 4 C-6.33 3.34 -6.66 2.68 -7 2 C-4.69 1.34 -2.38 0.68 0 0 Z " fill="#E4FBF4" transform="translate(129,152)"/>
<path d="M0 0 C0.99 0 1.98 0 3 0 C3 3.3 3 6.6 3 10 C2.67 10 2.34 10 2 10 C1.34 6.7 0.68 3.4 0 0 Z " fill="#D7F4EC" transform="translate(133,128)"/>
<path d="M0 0 C1.32 0 2.64 0 4 0 C4 0.66 4 1.32 4 2 C4.99 2.33 5.98 2.66 7 3 C2.25 4.125 2.25 4.125 0 3 C0 2.01 0 1.02 0 0 Z " fill="#2D8165" transform="translate(50,80)"/>
<path d="M0 0 C-0.66 2.64 -1.32 5.28 -2 8 C-2.33 8 -2.66 8 -3 8 C-3.33 5.69 -3.66 3.38 -4 1 C-2 0 -2 0 0 0 Z " fill="#398169" transform="translate(136,80)"/>
</svg>
